<?xml version="1.0" encoding="utf-8"?>
<!-- Generator: Adobe Illustrator 16.0.0, SVG Export Plug-In . SVG Version: 6.00 Build 0)  -->
<!DOCTYPE svg PUBLIC "-//W3C//DTD SVG 1.1//EN" "http://www.w3.org/Graphics/SVG/1.1/DTD/svg11.dtd">
<svg version="1.1" id="Layer_1" xmlns="http://www.w3.org/2000/svg" xmlns:xlink="http://www.w3.org/1999/xlink" x="0px" y="0px"
	 width="18.417px" height="19.041px" viewBox="0 -3.458 18.417 19.041" enable-background="new 0 -3.458 18.417 19.041"
	 xml:space="preserve">
<g>
	<g>
		<path fill="#FFFFFF" d="M13.701,12.336c0,0.716-0.218,1.276-0.65,1.69c-0.436,0.414-1.014,0.621-1.732,0.621H3.515
			c-0.721,0-1.299-0.207-1.732-0.621c-0.435-0.414-0.65-0.979-0.65-1.69c0-0.313,0.011-0.623,0.031-0.924
			c0.02-0.302,0.062-0.625,0.125-0.974C1.35,10.089,1.43,9.767,1.524,9.47c0.097-0.301,0.224-0.59,0.384-0.871
			c0.161-0.283,0.346-0.524,0.555-0.724c0.209-0.198,0.463-0.358,0.764-0.478c0.301-0.121,0.633-0.18,0.995-0.18
			c0.054,0,0.179,0.064,0.375,0.192s0.419,0.271,0.666,0.429C5.507,7.998,5.83,8.14,6.226,8.267
			c0.396,0.129,0.793,0.191,1.191,0.191s0.797-0.062,1.191-0.191C9.003,8.14,9.328,7.997,9.574,7.839
			c0.246-0.158,0.469-0.301,0.666-0.429c0.195-0.128,0.32-0.192,0.375-0.192c0.361,0,0.693,0.061,0.994,0.18
			s0.555,0.277,0.764,0.478c0.209,0.199,0.394,0.44,0.555,0.724c0.16,0.281,0.287,0.57,0.384,0.871
			c0.097,0.297,0.174,0.619,0.235,0.969c0.062,0.349,0.104,0.672,0.125,0.974C13.692,11.713,13.701,12.023,13.701,12.336z
			 M9.839,1.939c0.672,0.67,1.006,1.479,1.006,2.424c0,0.947-0.335,1.756-1.006,2.425c-0.67,0.669-1.478,1.004-2.424,1.004
			S5.662,7.457,4.992,6.788S3.987,5.31,3.987,4.363c0-0.945,0.335-1.754,1.005-2.424s1.478-1.004,2.424-1.004
			S9.169,1.271,9.839,1.939z"/>
	</g>
</g>
</svg>
