<?xml version="1.0" encoding="utf-8"?>
<!-- Generator: Adobe Illustrator 16.0.0, SVG Export Plug-In . SVG Version: 6.00 Build 0)  -->
<!DOCTYPE svg PUBLIC "-//W3C//DTD SVG 1.1//EN" "http://www.w3.org/Graphics/SVG/1.1/DTD/svg11.dtd">
<svg version="1.1" id="Layer_1" xmlns="http://www.w3.org/2000/svg" xmlns:xlink="http://www.w3.org/1999/xlink" x="0px" y="0px"
	 width="640px" height="480px" viewBox="0 0 640 480" enable-background="new 0 0 640 480" xml:space="preserve">
<g>
	<g>
		<path fill="#304D1F" d="M326.286,244.691c0,0.715-0.217,1.278-0.651,1.692c-0.435,0.413-1.013,0.62-1.732,0.62h-7.804
			c-0.72,0-1.298-0.207-1.732-0.62c-0.435-0.414-0.651-0.978-0.651-1.692c0-0.314,0.011-0.623,0.031-0.924s0.062-0.625,0.125-0.973
			c0.062-0.349,0.142-0.672,0.236-0.969c0.096-0.299,0.224-0.588,0.384-0.871c0.161-0.283,0.346-0.524,0.554-0.723
			c0.209-0.199,0.463-0.358,0.764-0.478s0.633-0.179,0.995-0.179c0.054,0,0.179,0.064,0.375,0.192
			c0.197,0.128,0.419,0.271,0.666,0.429c0.246,0.158,0.568,0.3,0.964,0.428c0.396,0.128,0.793,0.192,1.192,0.192
			c0.398,0,0.796-0.064,1.191-0.192c0.396-0.128,0.718-0.271,0.965-0.428c0.246-0.158,0.469-0.301,0.665-0.429
			s0.321-0.192,0.375-0.192c0.362,0,0.694,0.06,0.995,0.179s0.555,0.278,0.764,0.478c0.208,0.199,0.393,0.44,0.554,0.723
			c0.16,0.283,0.288,0.572,0.384,0.871c0.095,0.297,0.174,0.62,0.236,0.969c0.062,0.348,0.104,0.672,0.125,0.973
			S326.286,244.377,326.286,244.691z M322.425,234.294c0.67,0.669,1.004,1.478,1.004,2.424c0,0.947-0.334,1.755-1.004,2.424
			s-1.478,1.004-2.424,1.004c-0.947,0-1.755-0.335-2.425-1.004c-0.669-0.669-1.004-1.478-1.004-2.424
			c0-0.946,0.335-1.754,1.004-2.424c0.67-0.67,1.478-1.004,2.425-1.004C320.947,233.29,321.755,233.625,322.425,234.294z"/>
	</g>
</g>
</svg>
