<?xml version="1.0" encoding="utf-8"?>
<!-- Generator: Adobe Illustrator 16.0.0, SVG Export Plug-In . SVG Version: 6.00 Build 0)  -->
<!DOCTYPE svg PUBLIC "-//W3C//DTD SVG 1.1//EN" "http://www.w3.org/Graphics/SVG/1.1/DTD/svg11.dtd">
<svg version="1.1" id="Layer_1" xmlns="http://www.w3.org/2000/svg" xmlns:xlink="http://www.w3.org/1999/xlink" x="0px" y="0px"
	 width="792px" height="612px" viewBox="0 0 792 612" enable-background="new 0 0 792 612" xml:space="preserve">
<g>
	<path fill="#884F3D" d="M414.218,307.151l-1.388,1.655c-0.118,0.135-0.275,0.217-0.47,0.246h-0.066
		c-0.194,0-0.351-0.052-0.471-0.156l-15.48-12.909l-15.481,12.909c-0.179,0.119-0.359,0.172-0.538,0.156
		c-0.193-0.029-0.35-0.111-0.47-0.246l-1.387-1.655c-0.118-0.149-0.171-0.325-0.156-0.526c0.016-0.201,0.097-0.361,0.246-0.48
		l16.086-13.4c0.478-0.388,1.043-0.582,1.7-0.582c0.656,0,1.222,0.194,1.699,0.582l5.459,4.563v-4.363
		c0-0.208,0.068-0.38,0.202-0.514c0.134-0.135,0.306-0.201,0.515-0.201h4.296c0.207,0,0.38,0.066,0.514,0.201
		c0.135,0.134,0.201,0.306,0.201,0.514v9.127l4.899,4.072c0.149,0.119,0.231,0.279,0.247,0.48
		C414.39,306.826,414.337,307.002,414.218,307.151z M409.229,308.695v10.738c0,0.389-0.142,0.724-0.424,1.007
		c-0.283,0.284-0.62,0.425-1.008,0.425h-8.591v-8.59h-5.728v8.59h-8.591c-0.387,0-0.724-0.141-1.006-0.425
		c-0.284-0.283-0.426-0.618-0.426-1.007v-10.738c0-0.016,0.004-0.037,0.012-0.068c0.008-0.028,0.01-0.051,0.01-0.066l12.865-10.604
		l12.863,10.604C409.221,308.591,409.229,308.636,409.229,308.695z"/>
</g>
</svg>
